<svg width="22" height="21" viewBox="0 0 22 21" fill="none" xmlns="http://www.w3.org/2000/svg">
<path d="M10.0513 1.34605C10.3552 0.434352 11.6448 0.434354 11.9487 1.34605L13.7721 6.81623C13.9082 7.22457 14.2903 7.5 14.7208 7.5H20.1492C21.0945 7.5 21.5121 8.69036 20.7739 9.28087L16.0445 13.0644C15.7173 13.3261 15.588 13.764 15.7205 14.1615L17.4292 19.2875C17.7443 20.2329 16.6339 21.0072 15.8558 20.3846L11.6247 16.9998C11.2595 16.7076 10.7405 16.7076 10.3753 16.9998L6.1442 20.3846C5.36606 21.0072 4.2557 20.2329 4.57082 19.2875L6.2795 14.1615C6.41199 13.764 6.28266 13.3261 5.95551 13.0644L1.22609 9.28087C0.487949 8.69036 0.905504 7.5 1.85078 7.5H7.27924C7.70967 7.5 8.09181 7.22457 8.22792 6.81623L10.0513 1.34605Z" fill="white"/>
</svg>
